<?xml version="1.0" encoding="UTF-8"?>
<!DOCTYPE svg PUBLIC "-//W3C//DTD SVG 1.1//EN" "http://www.w3.org/Graphics/SVG/1.1/DTD/svg11.dtd">
<!-- Creator: CorelDRAW 2023 -->
<svg xmlns="http://www.w3.org/2000/svg" xml:space="preserve" width="57.9933mm" height="25.6113mm" version="1.1" style="shape-rendering:geometricPrecision; text-rendering:geometricPrecision; image-rendering:optimizeQuality; fill-rule:evenodd; clip-rule:evenodd"
viewBox="0 0 6007.19 2652.93"
 xmlns:xlink="http://www.w3.org/1999/xlink"
 xmlns:xodm="http://www.corel.com/coreldraw/odm/2003">
 <defs>
  <style type="text/css">
   <![CDATA[
    .fil0 {fill:#CD59FF}
    .fil1 {fill:white;fill-rule:nonzero}
   ]]>
  </style>
 </defs>
 <g id="Vrstva_x0020_1">
  <metadata id="CorelCorpID_0Corel-Layer"/>
  <path class="fil0" d="M3615.34 1778.39c-39.04,8.58 -89.02,24.15 -98.99,65.96 -10.36,43.5 40.67,182.18 40.83,185.89l-22.48 0c-1.33,-38.9 -28.31,-145.9 -42.9,-178.51 -7.9,-17.66 -17.6,-22.77 -28.9,-45.25 -13.82,-27.51 3.56,-50.31 4.17,-75.42 1.71,-70.49 30.08,-138.14 25.57,-206.05 -2.02,-30.42 -15.08,-43.58 -39.61,-16.4 -108.74,120.46 -186.62,207.23 -344.16,256.05 -27.11,8.39 -59,14.92 -76.1,39.69 -43.47,63.02 0.47,155.9 -3.74,225.88l-21.2 0 0.2 -0.88c6.3,-27.86 4.49,-83.89 0.8,-112.38 -2.99,-23.12 -2.24,-106.96 -36.81,-106.96 -15.13,1.26 -57.72,8.37 -78.72,5.29 -18.17,-2.65 -27.8,16.98 -33.73,30.83 -11.4,26.67 -18.95,57.11 -28.55,84.74 -12.39,35.65 -28.7,65.88 -44.98,99.36l-26.28 0 1.1 -2.12c21.11,-41 48.04,-75.44 57.54,-121.72 4.14,-20.2 4.66,-43.32 -4.58,-62.25 -25.35,-51.96 -19.97,-69.93 4.75,-120.89 14.53,-29.95 26.77,-120.11 18.36,-152.47 -19.98,-57.26 -49.01,-75.3 -102.4,-92.24 -91.11,-28.93 -200.83,-48.34 -295,-64.36 -89.93,-15.3 -181.63,-23.07 -272.63,-28.79 -58.91,-3.7 -105.5,-1.75 -162.05,14.37 -124.59,35.5 -176.64,81.61 -223.28,207.9 -9.42,25.51 -38.97,117.91 -18.6,139.65 46.74,49.89 100.58,98.58 150.66,145.27 48.71,45.41 99.16,90.11 145.78,137.65l0 35.93c-16.35,-13.35 -36.51,-35.7 -51.63,-50.96 -31.53,-31.84 -64.15,-69.35 -96.1,-100.79 -24.88,-24.5 -134.87,-133.83 -163.67,-142.25 -17.64,-5.16 -26.14,-6.66 -41.08,2.96 -16.22,10.45 -206.79,271.94 -218.36,298.09 -4.58,-3.81 -9.33,-7.5 -14.27,-11.04 17.26,-15.68 187.43,-272.81 193,-292.24 5.79,-20.17 -1.62,-35.53 -14.91,-50.56 -21.22,-24.02 -53.6,-34.55 -84.85,-36.31 -18.22,-1.04 -38.56,10.52 -51.68,22.43 -29.45,26.72 -138.51,260.75 -152.41,313.55 -9.53,-1.28 -19.34,-2.13 -29.42,-2.55 25.07,-51.25 50.64,-102.27 75.37,-153.7 16.15,-33.58 32.18,-67.33 47.36,-101.37 6.24,-13.99 21.02,-45.03 23.35,-59.63 5.75,-36.15 -10.81,-61.61 -41.81,-78.5 -50.44,-27.45 -125.11,-50.39 -180.07,-68.88 -67.38,-22.67 -140.1,-50.86 -202.94,-67.35l9.28 -21.89c51.82,20.08 138.71,54.54 210.96,75.61 45.02,13.12 138.71,42.1 184.18,41.54 26.49,-0.33 54.58,-7.34 69.82,-30.99 14.76,-22.9 29.29,-55.83 41.34,-80.67 11.02,-22.74 26.87,-52.29 35.39,-76.03 3.54,-5.59 6.67,-50.57 13.66,-67.09 9.87,-23.36 20.89,-37.89 36.58,-57.12 12.15,-14.91 19.23,-26.11 21.49,-45.96 4,-35.01 9.35,-66.06 22.27,-98.89 12.43,-31.6 22.9,-57.93 31.54,-91.35 4.24,-16.41 2.38,-52.17 -19.91,-54.58 -21.99,-2.37 -48.38,-1.89 -70.63,-2.26 -43.6,-0.73 -87.22,-1 -130.83,-1.06 -76.62,-0.09 -163.18,-2.07 -239.13,4.96l-1.66 0.16 8.09 -19.1c78,1.32 156.32,1.14 234.29,-0.84 62.09,-1.58 140.17,-2.65 200.84,-14.62 46.72,-9.22 54.05,-73.95 74.21,-110.82 114.2,-209.02 183.93,-423.57 322.46,-621.28 7,-9.99 36.99,-52.89 35.55,-65.51 -0.89,-7.7 -27.19,8.17 -29.41,9.5 -118.43,70.97 -233.14,149.72 -347.71,226.74 -111.91,75.22 -270.64,181.1 -343.69,231.19l15.92 -37.55c46.07,-22.35 86.67,-53.23 129.71,-80.81 65.5,-41.96 130.23,-85.35 194.62,-129 122.43,-82.98 243.94,-167.46 364.89,-252.59 42.62,-30 94.56,-91.08 146.65,-98.17 22.01,-2.99 42.28,-0.05 62.62,8.71 11.8,5.09 25.03,14.38 36.28,18.2 25.64,8.7 59.03,14.52 85.71,19.96 47.95,9.79 96.11,18.77 144.27,27.44 49.41,8.89 98.91,17.43 148.49,25.33 32.16,5.13 66.11,10.94 98.62,13.74 147.96,21.96 295.62,8.62 437.94,-36.22 47.01,-14.8 92.61,-32.85 137.33,-53.52 20.8,-9.62 48.72,-25.57 69.7,-32.58 72.55,-24.2 138.54,-3.09 175.82,66.26 23.92,44.49 49.75,84.97 71.57,131.32 5.79,12.3 33.2,10.12 43.41,30.86 6.46,13.11 14.61,37.16 24.61,46.92 102.84,100.37 218.21,205.52 331.47,294.15l-0.95 0 0 29.06c-112.07,-108.61 -240.79,-220.58 -357.37,-325.42 -10.88,-7.79 -31.64,-14.7 -45.29,-11.63 -18.54,4.15 -67.56,24.72 -73.95,43.32 -9.74,28.29 -16.29,29.49 -13.7,58.48 3.28,36.79 1.17,75.45 -1.18,112.26 -3.16,49.24 -7.32,98.36 -10,147.65 -0.9,16.61 3.65,40.45 4.21,58.41 0.66,21.69 -6.28,43.11 -6.33,64.79 -0.19,84.07 8.73,175.2 15.79,259.17 6.46,76.94 12.36,158.06 23.35,234.4 5.99,41.64 13.51,35.63 32.08,67.05 14.9,25.2 364.31,203.98 432.39,235.91l0 26.1c-44.5,-25.02 -145.67,-77.97 -214.78,-116.76 -30.91,-17.34 -177.19,-101.92 -205.67,-105.72 -23.68,-3.15 -36.21,17.73 -35.93,39.21 0.53,40.18 15.27,220.87 33.8,245.73 16.92,22.71 23.63,51.15 20.51,79.11 -3.08,27.59 -18.68,41.74 -3.24,70.44 43.4,80.68 252.62,214.5 291.33,240.4l-34.71 0c-49.97,-42.89 -104.87,-82.17 -156.82,-122.67 -47.75,-37.22 -96.2,-75.01 -145.39,-110.32 -29.18,-20.96 -43.6,-22.26 -76.72,-19.74zm98.59 -1523.25c29.57,-36.87 -37.93,-166.14 -63.08,-151.93 -20.45,11.55 -17.46,113.49 -12.74,135.7 2.32,10.87 7.69,41.74 23.39,41.65 19.79,-0.12 40.04,-9.96 52.43,-25.42zm-115.39 1501.91c28.46,-10.43 48.44,-29.15 49.37,-61.26 1.9,-65.18 -24.06,-160.07 -68.27,-208.82 -7.31,-8.06 -19.85,-3.09 -27.15,2.26 -12.68,9.29 -20.2,24.7 -21.39,40.21 -4.57,59.87 -45.75,141.11 -32.56,199.3 8.08,35.63 73.59,34.42 100,28.31zm-722.16 -538.2c-15.96,0.12 -39.47,-0.67 -53.71,4.63 -16.65,6.2 -20.71,32.1 -15.93,47.38 24.29,77.69 75.37,141.5 108.74,214.91 26.4,58.08 47.28,163.32 84.23,210.37 0.28,0.35 0.91,1.13 1.55,1.8 0.11,-2.31 -0.26,-5.82 -0.41,-7.04 -9.8,-77.45 -31.47,-159.48 -52.28,-234.73 -22.03,-79.63 -46.42,-158.82 -72.2,-237.31zm-87.22 211.19c28.46,-22.89 -4.67,-99.78 -16.83,-124.43 -29.03,-58.82 -72.95,-66.16 -135.74,-58.33 -58.34,7.27 -118.93,10.54 -177.69,16.37 -63.38,6.29 -143.56,13.19 -204.44,30.54 -20.29,5.78 -105.57,22.36 -110.53,44.23 -4.27,18.79 64.09,18.25 74.62,18.96 144.76,9.58 280.74,29.14 421.81,61.83 33.78,7.83 118.65,35.1 148.81,10.83zm106.63 -232.6c183.88,26.03 366.91,-7.27 546.16,-47.47 32.76,-7.34 31.17,-22.37 27.62,-51.47 -12.05,-98.8 -23.87,-202.11 -27.73,-301.46 -2.82,-72.71 0.39,-145.19 10.8,-217.22 3.06,-21.16 6.8,-42.09 10.68,-63.09 1.5,-8.17 4.93,-23.35 4.46,-31.45 -1.17,-19.92 -38.31,10.73 -43.4,15.32 -10.97,9.86 -28.79,21.31 -41.01,29.95 -28.87,20.4 -58.11,40.35 -87.65,59.78 -51.56,33.91 -131.3,86.69 -189.27,105.5 -77.12,25.04 -155.67,45.17 -234.29,64.83 -17.99,4.5 -112.82,26.43 -124.72,36.2 -20.35,16.73 -3.12,61.54 7.34,79.46 14.23,28.36 34.29,84.69 55.82,105.81 31.45,30.83 36.04,45.39 42.2,87.03 1.96,13.25 5.7,24.92 10.11,37.57 10.59,30.32 21.97,60.48 32.87,90.71zm563.47 -381.32c1.6,38.36 19.86,275.24 36.4,288.26 9,2.95 3.68,-17.47 2.88,-21.44 -16.56,-82.28 -29.22,-173.78 -15.85,-257.4 7.15,-44.72 50.46,-124.86 37.32,-167.23 -18.09,-58.37 -0.96,-89.97 -3.62,-147.02 -0.23,-5.09 -4.94,-33.82 -12.72,-28.95 -16.39,10.27 -30.02,86.97 -32.86,104.91 -11.83,74.53 -14.71,153.56 -11.56,228.86zm-564.33 719.35c-9.43,0.1 -16.83,44.18 -15.82,52.26 6.37,44.15 -14.53,106.37 -6.71,151.72 3.27,18.99 8.73,37.01 26.96,46.43 12.56,6.51 71.39,-12.16 74.87,-25.56 7.58,-29.26 -18.52,-83.24 -29.12,-111.26 -3.76,-9.95 -36.29,-113.73 -50.19,-113.58zm6.55 -316.32c50.31,158.79 105.27,320.43 133.88,484.7 4.53,25.99 17.71,46.16 46.48,43.19 154.01,-15.86 298.5,-163.24 383.92,-283.28 26.25,-36.89 35.77,-62.63 29.23,-106.25 -7.1,-47.4 -15.05,-79.03 -8.91,-126.87 1.85,-14.44 10.33,-57.73 -15.41,-54.55 -93.68,11.54 -187.64,25.2 -281.6,33.84 -96.11,8.83 -191.18,10.63 -287.59,9.21zm769.89 448.55c1.56,-6.16 2.65,-19.93 2.88,-22.83 2.68,-35 -2.02,-78.01 -5.29,-113.1 -4.06,-43.46 -9.17,-86.96 -12.43,-130.47 -2.65,-35.26 -28.62,-51.83 -48.56,-76.91 -27.41,-34.48 -41.83,-62.42 -52.03,-105.22 -5.05,-21.21 -29.18,-18.28 -36.43,6.7 -11.87,40.94 -3.7,82.31 6.22,122.96 5.38,32.16 32.35,63.08 50.44,89.09 35.1,50.47 58.73,111.6 77.3,170.03 2.21,6.93 13.33,48.79 17.91,59.75zm-17.4 -391.31c7.04,-34.69 -37.82,-456.51 -51.33,-500.75 -6.22,-20.39 -13.32,-1.91 -14.74,9.13 -10.93,84.48 -12.26,235.2 12.05,316.01 17.47,58.06 -12.3,69.7 -8.76,102.44 2.71,25.11 16,60.25 30.58,80.88 16.2,22.92 26.6,19.9 32.2,-7.72zm-95.84 -486.91c-0.02,-11.85 1.6,-57.07 -18.01,-29.42 -9.29,13.1 -23.23,43.62 -26.1,59.2 -15.33,83.29 -3.92,169.03 15.09,250.7 1.58,6.81 7.71,20.03 13.25,24.29 7.79,5.99 8.41,-24.17 8.48,-26.25 3.46,-91.58 7.46,-187.09 7.29,-278.53zm0.94 -396.29c-12.53,13.16 -17.69,25.68 -19.95,43.38 -2.3,18.02 -0.19,36.44 2.36,54.33 5.67,39.67 -18.15,105.79 6.99,139.21 39.89,53.02 61.91,-23.53 64.73,-55.66 5.6,-63.91 12.76,-132.43 8.28,-196.52 -1.29,-18.5 -17.68,-19.09 -31.23,-11.27 -12.15,7 -21.61,16.49 -31.18,26.53zm-8.61 -21.46c6.42,-0.79 22.34,-15.94 27.35,-20.39 11.02,-9.82 9.12,-30.66 7.65,-43.7 -2.49,-22.17 20.58,-52.22 19.95,-72 -0.81,-25.7 6.49,-114.24 -7.01,-131.67 -9.62,-12.41 -28.55,-23.54 -44.47,-24.49 -28.65,-1.7 -41.71,26.89 -47.72,50.38 -14.7,57.41 3.92,118.39 8.76,176.12 1.24,14.77 13.64,68.43 35.49,65.73zm-716.04 -228.18c-135.56,-20.51 -277.14,-41.05 -411.17,-68.97 -14.43,-3 -39.25,3.93 -24.47,20.52 31.99,35.9 62.31,79.53 91.05,118.33 13.75,18.55 56.88,80.62 73.27,92.9 35.43,26.57 68.97,48.62 113.59,56.23 47.42,8.08 105.38,9.61 153.64,12.24 82.31,4.49 164.71,7.85 247.08,10.99 120.11,4.58 241.54,6.41 361.38,12.52 23.86,1.22 48.18,-57.72 47.66,-78.77 -0.69,-28.42 -7.19,-56.63 -10.78,-84.79 -4.98,-39.1 -4.09,-75.05 2.9,-113.93 6.45,-35.94 54.58,-91.61 -11.36,-72.4 -14.57,4.25 -41.42,19.46 -56.49,26.22 -41.19,18.45 -83.54,33.75 -126.99,45.93 -146.08,40.94 -299.7,45.59 -449.3,22.96zm-995.05 722.45c2.12,-1.37 5.2,-3.8 6.11,-4.5 12.7,-9.69 38.03,-61.24 45.76,-76.76 8.37,-16.81 26.16,-59.63 36.11,-72.88 17.53,-23.33 28.48,-46.08 36.73,-73.91 5.96,-20.11 10.1,-41.12 20.56,-59.53 28.11,-49.45 76.62,-59.33 99.74,-94.75 26.42,-40.48 51.61,-105.42 70.41,-150.63 20.4,-49.05 39.68,-98.39 59.37,-147.7 1.11,-2.78 7.55,-19.26 5.58,-22.04 -14.92,-3.8 -98.27,106.13 -107.99,122 -63.62,103.91 -121.79,214.28 -173.85,324.44 -32.25,68.23 -84.18,177.51 -97.8,251.21 -0.16,0.83 -0.59,3.22 -0.75,5.04zm267.69 -351.15c-0.48,1.4 -2.88,9.17 -1.63,10.51 4.36,2.48 24.61,-15.8 27.76,-19.17 52.09,-55.74 97.26,-123.31 167.75,-157.79 25.1,-12.29 49.25,-15.94 76.23,-20.86 9.56,-1.75 31.15,-3.95 28.85,-17.81 -5.14,-18.69 -142.42,-191.95 -163.13,-135.2 -41.74,114.33 -96.8,225.7 -135.83,340.32zm375.2 -221.01c51.51,-3.72 -118.25,-241.05 -160.98,-187.75 -15.99,19.95 41.06,71.81 53.43,85.6 12.2,13.59 91.96,103.26 107.55,102.14zm-535.44 444.52c-11.29,17.33 -23.53,44.24 -33.2,63.16 -15.49,30.29 -31.97,62.08 -44.99,93.46 -5.5,13.27 -3.31,20.53 3.4,33.21 19.28,36.4 12.87,58.37 -5.15,93.94 -8.14,16.05 -3.18,29.42 6.89,43.51 9.89,13.84 35.57,28.1 51.12,34.63 36.67,15.4 47.76,-33.02 52.41,-58.43 18.76,-102.56 39.9,-217.38 42.18,-321.43 1.91,-87.22 -54.83,-0.75 -72.66,17.96zm71.18 335.46c-3.21,24.52 11.97,38.63 34.35,45.38 29.72,8.97 79.55,11.72 110.85,14.12 59.92,4.62 120.15,7.5 180.2,9.85 59.82,2.33 119.7,4.05 179.55,4.96 35.39,0.54 73.95,1.84 109.22,-0.39 30.25,-1.93 42.35,-29.19 42.89,-55.97 1.27,-61.32 -15.11,-98.64 -24.5,-157.66 -7.32,-45.98 -40.64,-60.62 -55.09,-105.03 -10.92,-33.53 -8.91,-71.01 -21.63,-105.69 -19.88,-54.21 -36.82,-110.39 -52.79,-165.88 -9.94,-34.58 -21.98,-73.4 -29.08,-108.57 -9.62,-47.71 -26.52,-60 -66.87,-87.27 -22.05,-14.91 -88.6,6.25 -110.49,14.61 -58.95,22.53 -135.99,113.44 -157.77,172.37 -10.58,28.64 -9.8,54.44 -29.43,80.39 -19.35,25.57 -39.84,53.47 -53.57,82.53 -17.83,37.74 -29.76,143.73 -35.42,187.39 -7.54,58.2 -12.8,116.82 -20.43,174.85zm-350.29 602.01c18.7,0.73 25.21,-33.8 27.63,-47.02 5.66,-31.01 3.06,-170.64 -7.73,-198.22 -10.39,-26.56 -37.2,-15.08 -48.35,4.26 -13.62,20.7 -26.86,41.73 -39.96,62.65 -9.67,15.43 -32.58,49.06 -38.39,65.09 -11.06,30.55 -4.41,53.42 19.4,74.93 14.09,12.73 68.69,37.58 87.4,38.31zm102.26 -115.29c40.56,-102.04 108.78,-153.76 208.82,-189.16 13.41,-4.74 31.49,-11.4 8.03,-17.65 -25.7,-6.84 -65.69,-5.39 -91.93,-2.97 -39.35,6.27 -88.19,11.77 -124.01,30.13 -12.93,6.63 -29.73,22.91 -33.95,37 -9.42,31.4 -10.03,177.87 -3.58,211.59 0.28,1.46 1.65,8.13 3.16,8.9 7.43,-1.14 29.65,-68.19 33.48,-77.84zm54.54 -294.73c-24.16,10.45 -44.05,29.78 -65.9,42.97 -20.45,12.34 -33.72,57.04 2.95,49.1 42.49,-9.21 88.83,-19.41 132.01,-23.4 29.89,-2.76 59.74,-5.22 89.69,-7.04 58.89,-3.59 5.82,-86.18 -1.04,-119.37 -5.91,-28.63 -15.23,-26.72 -36.79,-18.67 -11.93,4.46 -38.07,23.03 -49.47,30.45 -23.62,15.36 -47.16,31.06 -71.45,45.96zm77.69 -91.69c9.4,-7.86 1.64,-28.15 -3.31,-36.48 -11.2,-18.84 -39.58,-21.83 -56.05,-48.43 -9.07,-14.65 -16.47,-32.63 -32.74,-40.94 -32.37,-16.54 -54.97,52.04 -61.21,71.15 -13.7,42.01 -27.5,91.99 -28.21,136.41 -0.29,18.31 15.15,27.09 32.02,17.9 60.69,-33.1 96.03,-54.83 149.5,-99.62zm808.87 -89.84c12.64,30.06 42.01,17.9 57.8,-1.54 19.89,-24.5 8.09,-59.13 2.29,-86.16 -6.74,-31.42 -27.08,-65.95 -41.01,-94.99 -4.9,-10.19 -19.16,-38.96 -32.06,-37.85 -57.15,4.88 0.56,191.02 12.98,220.54zm20.58 -318.73c53.55,-1.76 120.34,-16.79 172.74,-28.63 66.4,-15.01 134.65,-32.59 199.1,-54.51 94.1,-31.99 237.03,-141.52 317.27,-204.69 10.09,-7.93 18.42,-19.66 16.84,-33.1 -0.91,-7.79 -5.91,-16.57 -14.2,-18.14 -38.7,-7.33 -93.32,-8.51 -133.18,-11.17 -80.93,-5.4 -161.9,-10.17 -242.86,-14.99 -80.6,-4.8 -161.22,-9.49 -241.8,-14.69 -39.34,-2.54 -92.37,-3.48 -130.61,-10.36 -21.68,-3.89 -49.3,-12.06 -71.23,-8.15 -12.09,2.15 -14.98,24.37 -14.54,34.17 3.09,69.45 67.55,244.13 95.82,313.05 6.45,15.74 27.26,51.83 46.66,51.19zm-102.59 -25.26c1.32,2.77 9.52,19.45 13.09,19.82 6.74,-4.62 -1.98,-46.22 -4.76,-54.2 -28.02,-80.18 -46.03,-164.44 -74.43,-244.41 -1.72,-4.84 -14.13,-47.37 -23.9,-39.83 -14.34,11.05 20.18,125.29 24.99,141.03 17.34,56.65 39.41,124.21 65,177.58zm-363.92 529.02c96.3,-25.1 210.84,-25.06 310.3,-37.39 16.64,-2.06 70.01,-10.69 80.81,-25.22 9.05,-12.18 -45.48,-12.88 -48.24,-12.88 -35.18,0 -72.08,-2.58 -107.29,-4.17 -63.13,-2.87 -126.27,-5.86 -189.4,-8.71 -61.43,-2.77 -122.88,-5.51 -184.34,-7.54 -14.2,-0.48 -79.49,-4.02 -91.1,-0.8 -13.98,3.88 -14.32,20.4 -8.94,31.38 11.59,23.63 34.91,64.08 65.6,65.43 56.56,2.51 116.72,14.47 172.61,-0.09zm602.48 -76.23c-13.63,-37.67 -28.91,-72.07 -51.27,-105.68 -14.22,-21.38 -25.55,11.74 -32.65,23.43 -28.61,47.14 -1.06,61.31 42.43,73.56 13.33,3.76 27.68,6.45 41.5,8.69z"/>
  <path class="fil1" d="M4142.97 1578.72l0 -999.56 98.55 0 0 912.28 577.2 0 0 87.28 -675.75 0zm1864.23 1019.84l0 54.37 -418.35 0 0 -622.69 410.45 0 0 54.38 -349.06 0 0 224.52 304.33 0 0 51.74 -304.33 0 0 237.67 356.95 0zm-1453.75 -271.88c0,-37.42 6.58,-74.69 19.73,-111.82 13.16,-37.12 32.31,-70.31 57.45,-99.54 25.14,-29.23 56.12,-53.06 92.96,-71.47 36.83,-18.42 78.64,-27.63 125.42,-27.63 55.54,0 103.05,12.56 142.51,37.7 39.47,25.15 68.55,57.88 87.27,98.23l-48.24 29.82c-9.94,-20.47 -22.07,-37.72 -36.4,-51.75 -14.33,-14.03 -29.67,-25.43 -46.04,-34.2 -16.37,-8.76 -33.32,-15.05 -50.87,-18.85 -17.54,-3.8 -34.78,-5.7 -51.74,-5.7 -37.41,0 -70.45,7.6 -99.1,22.8 -28.65,15.21 -52.77,35.08 -72.35,59.63 -19.59,24.56 -34.35,52.19 -44.29,82.89 -9.94,30.69 -14.91,61.83 -14.91,93.4 0,34.49 5.99,67.53 17.97,99.1 11.98,31.57 28.36,59.49 49.12,83.76 20.76,24.26 45.31,43.56 73.67,57.88 28.35,14.33 59.2,21.48 92.52,21.48 17.54,0 35.52,-2.2 53.94,-6.58 18.42,-4.38 36.25,-11.4 53.5,-21.05 17.25,-9.64 33.18,-21.63 47.79,-35.95 14.62,-14.33 26.9,-31.72 36.83,-52.19l50.87 26.31c-9.94,23.39 -23.97,43.99 -42.1,61.83 -18.13,17.84 -38.3,32.89 -60.51,45.16 -22.22,12.29 -45.75,21.64 -70.6,28.07 -24.85,6.43 -49.25,9.64 -73.23,9.64 -42.68,0 -81.85,-9.35 -117.52,-28.06 -35.66,-18.72 -66.36,-43.12 -92.09,-73.23 -25.73,-30.11 -45.75,-64.32 -60.08,-102.61 -14.33,-38.3 -21.48,-77.33 -21.48,-117.08zm-957.34 -182.42l0 508.67 -61.39 0 0 -622.69 47.36 0 412.2 518.33 0 -517.44 61.39 0 0 621.81 -53.5 0 -406.06 -508.67zm-559.17 454.3l0 54.37 -418.35 0 0 -622.69 410.45 0 0 54.38 -349.06 0 0 224.52 304.33 0 0 51.74 -304.33 0 0 237.67 356.95 0zm-977.51 54.37l0 -622.69 61.39 0 0 622.69 -61.39 0zm-1035.39 -326.25c0,-37.42 6.58,-74.69 19.73,-111.82 13.16,-37.12 32.31,-70.31 57.45,-99.54 25.14,-29.23 56.12,-53.06 92.96,-71.47 36.83,-18.42 78.64,-27.63 125.42,-27.63 55.54,0 103.05,12.56 142.51,37.7 39.47,25.15 68.55,57.88 87.27,98.23l-48.24 29.82c-9.94,-20.47 -22.07,-37.72 -36.4,-51.75 -14.33,-14.03 -29.67,-25.43 -46.04,-34.2 -16.37,-8.76 -33.32,-15.05 -50.87,-18.85 -17.54,-3.8 -34.78,-5.7 -51.74,-5.7 -37.41,0 -70.45,7.6 -99.1,22.8 -28.65,15.21 -52.77,35.08 -72.35,59.63 -19.59,24.56 -34.35,52.19 -44.29,82.89 -9.94,30.69 -14.91,61.83 -14.91,93.4 0,34.49 5.99,67.53 17.97,99.1 11.98,31.57 28.36,59.49 49.12,83.76 20.76,24.26 45.31,43.56 73.67,57.88 28.35,14.33 59.2,21.48 92.52,21.48 17.54,0 35.52,-2.2 53.94,-6.58 18.42,-4.38 36.25,-11.4 53.5,-21.05 17.25,-9.64 33.18,-21.63 47.79,-35.95 14.62,-14.33 26.9,-31.72 36.83,-52.19l50.87 26.31c-9.94,23.39 -23.97,43.99 -42.1,61.83 -18.13,17.84 -38.3,32.89 -60.51,45.16 -22.22,12.29 -45.75,21.64 -70.6,28.07 -24.85,6.43 -49.25,9.64 -73.23,9.64 -42.68,0 -81.85,-9.35 -117.52,-28.06 -35.66,-18.72 -66.36,-43.12 -92.09,-73.23 -25.73,-30.11 -45.75,-64.32 -60.08,-102.61 -14.33,-38.3 -21.48,-77.33 -21.48,-117.08zm-558.29 -190.32c-17.54,-19.88 -40.93,-35.95 -70.16,-48.24 -29.23,-12.27 -62.56,-18.42 -99.98,-18.42 -54.96,0 -95.01,10.38 -120.16,31.14 -25.14,20.76 -37.7,48.96 -37.7,84.63 0,18.72 3.36,34.06 10.08,46.05 6.72,11.98 17.1,22.36 31.14,31.13 14.04,8.77 32.01,16.38 53.94,22.81 21.93,6.42 47.79,12.85 77.62,19.29 33.32,7.02 63.29,14.92 89.89,23.68 26.61,8.77 49.26,19.73 67.97,32.89 18.71,13.16 33.03,29.09 42.98,47.8 9.93,18.71 14.91,42.1 14.91,70.16 0,28.65 -5.55,53.5 -16.66,74.55 -11.11,21.05 -26.61,38.59 -46.49,52.62 -19.88,14.03 -43.56,24.4 -71.04,31.13 -27.48,6.72 -57.59,10.09 -90.34,10.09 -96.47,0 -179.78,-30.11 -249.95,-90.34l30.7 -49.99c11.1,11.69 24.4,22.81 39.9,33.33 15.5,10.52 32.74,19.73 51.74,27.63 19.01,7.89 39.32,14.03 60.96,18.42 21.63,4.38 44.44,6.58 68.41,6.58 49.7,0 88.43,-8.92 116.2,-26.76 27.77,-17.83 41.66,-44.87 41.66,-81.12 0,-19.3 -3.95,-35.52 -11.84,-48.67 -7.89,-13.16 -19.73,-24.56 -35.52,-34.2 -15.79,-9.65 -35.37,-17.98 -58.76,-24.99 -23.39,-7.02 -50.57,-14.04 -81.56,-21.05 -32.74,-7.6 -61.39,-15.5 -85.94,-23.68 -24.56,-8.19 -45.32,-18.42 -62.27,-30.7 -16.96,-12.27 -29.67,-27.04 -38.15,-44.28 -8.47,-17.26 -12.71,-38.45 -12.71,-63.59 0,-28.65 5.41,-54.23 16.22,-76.74 10.81,-22.51 26.17,-41.23 46.04,-56.13 19.88,-14.91 43.27,-26.31 70.16,-34.2 26.9,-7.89 56.72,-11.84 89.46,-11.84 41.52,0 78.5,6.29 110.95,18.85 32.44,12.58 61.83,30.26 88.14,53.07l-29.82 49.11zm18.54 -1550.16l92.92 0 140.79 354.77 142.19 -354.77 94.32 0 -174.57 426.57 191.47 451.91 361.81 -885.52 106.99 0 -423.75 999.56 -87.29 0 -209.77 -494.15 -211.17 494.15 -85.88 0 -422.34 -999.56 105.58 0 363.22 885.52 190.06 -451.91 -174.57 -426.57zm4704.96 992.51l0 -999.56 339.29 0c79.77,0 149.46,13.14 209.05,39.42 59.6,26.28 109.34,61.94 149.23,106.99 39.89,45.05 69.92,97.85 90.1,158.38 20.18,60.53 30.27,125.06 30.27,193.58 0,76.02 -11.26,144.77 -33.78,206.25 -22.53,61.47 -54.67,114.03 -96.44,157.68 -41.77,43.64 -91.98,77.43 -150.64,101.36 -58.66,23.94 -124.59,35.9 -197.79,35.9l-339.29 0zm719.4 -501.18c0,-60.07 -8.45,-115.21 -25.35,-165.42 -16.89,-50.21 -41.53,-93.62 -73.91,-130.23 -32.38,-36.6 -72.03,-64.99 -118.97,-85.17 -46.92,-20.18 -100.89,-30.27 -161.89,-30.27l-240.74 0 0 824.99 240.74 0c61.94,0 116.62,-10.57 164,-31.68 47.4,-21.12 87.05,-50.22 118.97,-87.29 31.9,-37.07 56.08,-80.71 72.5,-130.93 16.43,-50.21 24.64,-104.88 24.64,-164z"/>
 </g>
</svg>
